<?xml version="1.0" encoding="utf-8"?>
<!-- Generator: Adobe Illustrator 26.3.1, SVG Export Plug-In . SVG Version: 6.00 Build 0)  -->
<svg version="1.1" id="Layer_1" xmlns="http://www.w3.org/2000/svg" xmlns:xlink="http://www.w3.org/1999/xlink" x="0px" y="0px"
	 viewBox="0 0 486.44 273.62" style="enable-background:new 0 0 486.44 273.62;" xml:space="preserve">
<style type="text/css">
	.st0{opacity:0.9;}
</style>
<g class="st0">
	<path d="M68.73,118.16h0.04l11.8-20.79h5.79l-4.72,26.96h-3.69l4-22.5h-0.11l-12.98,22.5h-2.36l-4.99-22.5h-0.08l-4,22.5h-3.58
		l4.76-26.96h5.75L68.73,118.16z"/>
	<path d="M101.09,113.06c0.05-0.35,0.09-0.63,0.11-0.84c0.02-0.2,0.04-0.39,0.04-0.57c0-1.07-0.33-1.83-0.99-2.3
		c-0.66-0.47-1.6-0.7-2.82-0.7c-0.96,0-1.93,0.19-2.89,0.57c-0.97,0.38-1.8,0.85-2.51,1.41l-1.45-2.36
		c0.96-0.76,2.09-1.36,3.39-1.81c1.29-0.44,2.61-0.67,3.96-0.67c0.86,0,1.69,0.09,2.49,0.29c0.8,0.19,1.51,0.5,2.13,0.91
		c0.62,0.42,1.12,0.97,1.5,1.66c0.38,0.69,0.57,1.51,0.57,2.48c0,0.23-0.01,0.53-0.04,0.89c-0.03,0.37-0.06,0.68-0.11,0.93
		l-1.33,7.31c-0.13,0.71-0.23,1.44-0.3,2.19c-0.08,0.75-0.11,1.38-0.11,1.88h-3.24c0-0.38,0.02-0.79,0.06-1.22
		c0.04-0.43,0.1-0.86,0.17-1.29h-0.08c-0.86,1.02-1.8,1.75-2.82,2.21c-1.02,0.46-2.21,0.69-3.58,0.69c-0.61,0-1.24-0.08-1.9-0.23
		c-0.66-0.15-1.26-0.41-1.81-0.78c-0.55-0.37-1-0.86-1.35-1.47c-0.36-0.61-0.53-1.37-0.53-2.28c0-1.47,0.41-2.66,1.22-3.56
		c0.81-0.9,1.86-1.6,3.14-2.09c1.28-0.49,2.72-0.82,4.32-0.99C97.93,113.14,99.51,113.06,101.09,113.06z M100.14,115.64
		c-0.99,0-2.02,0.04-3.08,0.13c-1.07,0.09-2.04,0.27-2.91,0.53c-0.88,0.27-1.59,0.65-2.15,1.16c-0.56,0.51-0.84,1.17-0.84,1.98
		c0,0.51,0.1,0.92,0.29,1.24s0.44,0.58,0.76,0.78c0.32,0.2,0.67,0.34,1.07,0.42s0.79,0.11,1.2,0.11c0.79,0,1.52-0.13,2.21-0.4
		c0.69-0.27,1.28-0.63,1.79-1.08c0.51-0.46,0.93-0.99,1.28-1.6c0.34-0.61,0.58-1.26,0.7-1.94l0.27-1.33H100.14z"/>
	<path d="M112.47,121.28l-0.53,3.05h-3.39l5.06-28.78h3.54l-2.47,13.63h0.08c0.66-0.96,1.57-1.77,2.72-2.42
		c1.15-0.65,2.43-0.97,3.83-0.97c1.19,0,2.27,0.19,3.24,0.57c0.96,0.38,1.79,0.91,2.47,1.6c0.69,0.69,1.22,1.5,1.6,2.46
		c0.38,0.95,0.57,2.01,0.57,3.18c0,1.55-0.25,3-0.76,4.36c-0.51,1.36-1.22,2.54-2.13,3.56c-0.91,1.02-2,1.81-3.25,2.4
		s-2.62,0.88-4.09,0.88c-1.32,0-2.57-0.3-3.75-0.9c-1.18-0.6-2.06-1.47-2.65-2.61H112.47z M125.61,113.93
		c0-1.47-0.43-2.71-1.29-3.71c-0.86-1-2.11-1.5-3.73-1.5c-1.02,0-1.95,0.21-2.82,0.63s-1.62,0.99-2.27,1.71
		c-0.65,0.72-1.16,1.57-1.52,2.53c-0.37,0.96-0.55,1.98-0.55,3.05c0,0.76,0.12,1.47,0.36,2.11c0.24,0.65,0.59,1.2,1.05,1.66
		c0.46,0.46,1,0.82,1.64,1.08c0.63,0.27,1.35,0.4,2.13,0.4c1.07,0,2.03-0.21,2.89-0.63c0.86-0.42,1.6-0.98,2.21-1.69
		c0.61-0.71,1.08-1.55,1.41-2.51C125.44,116.09,125.61,115.05,125.61,113.93z"/>
	<path d="M144.95,124.33c0.05-0.35,0.11-0.83,0.19-1.43c0.08-0.6,0.14-1.1,0.19-1.5h-0.08c-0.66,1.04-1.5,1.87-2.53,2.49
		s-2.19,0.93-3.48,0.93c-1.98,0-3.48-0.53-4.51-1.58c-1.03-1.05-1.54-2.39-1.54-4.02c0-0.28,0.02-0.57,0.06-0.88
		c0.04-0.3,0.08-0.61,0.13-0.91l1.98-11.16h3.5l-1.75,9.94c-0.05,0.36-0.1,0.7-0.13,1.05s-0.06,0.68-0.06,1.01
		c0,1.04,0.25,1.89,0.76,2.55c0.51,0.66,1.41,0.99,2.7,0.99c1.42,0,2.66-0.54,3.71-1.62c1.05-1.08,1.73-2.52,2.04-4.32l1.71-9.59
		h3.5l-2.48,14.12c-0.1,0.48-0.21,1.1-0.32,1.87c-0.11,0.76-0.2,1.45-0.25,2.06H144.95z"/>
	<path d="M166.88,105.78c1.98,0,3.48,0.53,4.49,1.58c1.02,1.05,1.52,2.38,1.52,3.98c0,0.63-0.05,1.24-0.15,1.83l-1.98,11.16h-3.54
		l1.75-9.98c0.15-0.69,0.23-1.36,0.23-2.02c0-1.04-0.25-1.89-0.76-2.55c-0.51-0.66-1.42-0.99-2.74-0.99c-1.45,0-2.68,0.54-3.71,1.62
		c-1.03,1.08-1.71,2.53-2.04,4.36l-1.67,9.56h-3.54l5.06-28.78h3.54l-2.36,13.48h0.08c0.58-0.91,1.38-1.68,2.38-2.3
		C164.43,106.1,165.58,105.78,166.88,105.78z"/>
	<path d="M189.87,113.06c0.05-0.35,0.09-0.63,0.11-0.84c0.02-0.2,0.04-0.39,0.04-0.57c0-1.07-0.33-1.83-0.99-2.3
		c-0.66-0.47-1.6-0.7-2.82-0.7c-0.96,0-1.93,0.19-2.89,0.57c-0.97,0.38-1.8,0.85-2.51,1.41l-1.45-2.36
		c0.96-0.76,2.09-1.36,3.39-1.81c1.29-0.44,2.61-0.67,3.96-0.67c0.86,0,1.69,0.09,2.49,0.29c0.8,0.19,1.51,0.5,2.13,0.91
		c0.62,0.42,1.12,0.97,1.5,1.66c0.38,0.69,0.57,1.51,0.57,2.48c0,0.23-0.01,0.53-0.04,0.89c-0.03,0.37-0.06,0.68-0.11,0.93
		l-1.33,7.31c-0.13,0.71-0.23,1.44-0.3,2.19c-0.08,0.75-0.11,1.38-0.11,1.88h-3.24c0-0.38,0.02-0.79,0.06-1.22
		c0.04-0.43,0.1-0.86,0.17-1.29h-0.08c-0.86,1.02-1.8,1.75-2.82,2.21c-1.02,0.46-2.21,0.69-3.58,0.69c-0.61,0-1.24-0.08-1.9-0.23
		c-0.66-0.15-1.26-0.41-1.81-0.78c-0.55-0.37-1-0.86-1.35-1.47c-0.36-0.61-0.53-1.37-0.53-2.28c0-1.47,0.41-2.66,1.22-3.56
		c0.81-0.9,1.86-1.6,3.14-2.09c1.28-0.49,2.72-0.82,4.32-0.99C186.71,113.14,188.3,113.06,189.87,113.06z M188.92,115.64
		c-0.99,0-2.02,0.04-3.08,0.13c-1.07,0.09-2.04,0.27-2.91,0.53c-0.88,0.27-1.59,0.65-2.15,1.16c-0.56,0.51-0.84,1.17-0.84,1.98
		c0,0.51,0.1,0.92,0.29,1.24s0.44,0.58,0.76,0.78c0.32,0.2,0.67,0.34,1.07,0.42s0.79,0.11,1.2,0.11c0.79,0,1.52-0.13,2.21-0.4
		c0.69-0.27,1.28-0.63,1.79-1.08c0.51-0.46,0.93-0.99,1.28-1.6c0.34-0.61,0.58-1.26,0.7-1.94l0.27-1.33H188.92z"/>
	<path d="M204.11,120.48h0.08l8-14.2h3.81l-13.21,22.31c-0.46,0.76-0.9,1.44-1.33,2.04c-0.43,0.6-0.9,1.1-1.41,1.52
		c-0.51,0.42-1.07,0.74-1.68,0.97c-0.61,0.23-1.29,0.34-2.06,0.34c-0.79,0-1.54-0.09-2.25-0.27l0.5-3.12c0.56,0.2,1.12,0.3,1.67,0.3
		c0.81,0,1.48-0.26,2.02-0.78c0.53-0.52,1.09-1.26,1.68-2.23l1.79-3.05l-3.96-18.05h3.77L204.11,120.48z"/>
	<path d="M230.57,97.37h8.72c1.52,0,3.03,0.21,4.53,0.63c1.5,0.42,2.84,1.08,4.04,1.98c1.19,0.9,2.16,2.07,2.89,3.5
		c0.74,1.43,1.1,3.15,1.1,5.16c0,2.36-0.41,4.51-1.24,6.43c-0.83,1.93-1.97,3.58-3.45,4.95c-1.47,1.37-3.21,2.43-5.22,3.18
		c-2.01,0.75-4.19,1.12-6.55,1.12h-9.59L230.57,97.37z M230.07,121.05h5.52c2.03,0,3.81-0.34,5.35-1.01
		c1.54-0.67,2.82-1.57,3.86-2.68c1.04-1.12,1.82-2.39,2.34-3.83c0.52-1.43,0.78-2.91,0.78-4.44c0-1.17-0.19-2.27-0.57-3.29
		c-0.38-1.03-0.96-1.93-1.73-2.7c-0.77-0.77-1.76-1.39-2.97-1.85c-1.21-0.46-2.63-0.69-4.28-0.69h-4.68L230.07,121.05z"/>
	<path d="M266.81,124.33c0.05-0.35,0.11-0.83,0.19-1.43c0.08-0.6,0.14-1.1,0.19-1.5h-0.08c-0.66,1.04-1.5,1.87-2.53,2.49
		c-1.03,0.62-2.19,0.93-3.48,0.93c-1.98,0-3.48-0.53-4.51-1.58c-1.03-1.05-1.54-2.39-1.54-4.02c0-0.28,0.02-0.57,0.06-0.88
		c0.04-0.3,0.08-0.61,0.13-0.91l1.98-11.16h3.5l-1.75,9.94c-0.05,0.36-0.09,0.7-0.13,1.05s-0.06,0.68-0.06,1.01
		c0,1.04,0.25,1.89,0.76,2.55c0.51,0.66,1.41,0.99,2.7,0.99c1.42,0,2.66-0.54,3.71-1.62c1.05-1.08,1.73-2.52,2.04-4.32l1.71-9.59
		h3.5l-2.47,14.12c-0.1,0.48-0.21,1.1-0.32,1.87c-0.11,0.76-0.2,1.45-0.25,2.06H266.81z"/>
	<path d="M300.2,105.78c2.03,0,3.56,0.53,4.59,1.58c1.03,1.05,1.54,2.38,1.54,3.98c0,0.3-0.02,0.6-0.06,0.9
		c-0.04,0.29-0.08,0.6-0.13,0.93l-1.98,11.16h-3.5l1.75-9.98c0.05-0.35,0.1-0.7,0.13-1.03c0.04-0.33,0.06-0.66,0.06-0.99
		c0-1.04-0.25-1.9-0.76-2.57c-0.51-0.67-1.41-1.01-2.7-1.01c-0.84,0-1.57,0.17-2.19,0.51c-0.62,0.34-1.15,0.79-1.58,1.35
		c-0.43,0.56-0.78,1.18-1.05,1.87c-0.27,0.69-0.46,1.38-0.59,2.09l-1.71,9.75h-3.54l1.9-10.7c0.05-0.3,0.09-0.6,0.13-0.88
		c0.04-0.28,0.06-0.55,0.06-0.8c0-0.96-0.24-1.74-0.72-2.32c-0.48-0.58-1.29-0.88-2.44-0.88c-0.66,0-1.29,0.15-1.9,0.44
		c-0.61,0.29-1.16,0.7-1.66,1.22c-0.49,0.52-0.92,1.15-1.28,1.88c-0.36,0.74-0.61,1.55-0.76,2.44l-1.68,9.59h-3.54l2.47-14.12
		c0.1-0.48,0.21-1.1,0.32-1.87c0.11-0.76,0.2-1.45,0.25-2.06h3.35c-0.05,0.36-0.11,0.84-0.19,1.45c-0.08,0.61-0.14,1.1-0.19,1.48
		h0.08c0.63-0.96,1.44-1.78,2.42-2.44c0.98-0.66,2.14-0.99,3.48-0.99c1.24,0,2.35,0.3,3.33,0.89c0.98,0.6,1.6,1.53,1.88,2.8
		c0.74-1.17,1.64-2.08,2.72-2.72C297.61,106.11,298.83,105.78,300.2,105.78z"/>
	<path d="M323.27,113.06c0.05-0.35,0.09-0.63,0.11-0.84c0.02-0.2,0.04-0.39,0.04-0.57c0-1.07-0.33-1.83-0.99-2.3
		c-0.66-0.47-1.6-0.7-2.82-0.7c-0.96,0-1.93,0.19-2.89,0.57s-1.8,0.85-2.51,1.41l-1.45-2.36c0.96-0.76,2.09-1.36,3.39-1.81
		c1.29-0.44,2.61-0.67,3.96-0.67c0.86,0,1.69,0.09,2.49,0.29c0.8,0.19,1.51,0.5,2.13,0.91c0.62,0.42,1.12,0.97,1.5,1.66
		c0.38,0.69,0.57,1.51,0.57,2.48c0,0.23-0.01,0.53-0.04,0.89c-0.03,0.37-0.06,0.68-0.11,0.93l-1.33,7.31
		c-0.13,0.71-0.23,1.44-0.3,2.19c-0.08,0.75-0.11,1.38-0.11,1.88h-3.24c0-0.38,0.02-0.79,0.06-1.22c0.04-0.43,0.09-0.86,0.17-1.29
		h-0.08c-0.86,1.02-1.8,1.75-2.82,2.21c-1.01,0.46-2.21,0.69-3.58,0.69c-0.61,0-1.24-0.08-1.9-0.23s-1.26-0.41-1.81-0.78
		c-0.55-0.37-1-0.86-1.35-1.47c-0.36-0.61-0.53-1.37-0.53-2.28c0-1.47,0.41-2.66,1.22-3.56c0.81-0.9,1.86-1.6,3.14-2.09
		c1.28-0.49,2.72-0.82,4.32-0.99C320.11,113.14,321.7,113.06,323.27,113.06z M322.32,115.64c-0.99,0-2.02,0.04-3.08,0.13
		c-1.07,0.09-2.04,0.27-2.91,0.53s-1.59,0.65-2.15,1.16c-0.56,0.51-0.84,1.17-0.84,1.98c0,0.51,0.1,0.92,0.29,1.24
		s0.44,0.58,0.76,0.78c0.32,0.2,0.67,0.34,1.07,0.42s0.79,0.11,1.2,0.11c0.79,0,1.52-0.13,2.21-0.4c0.69-0.27,1.28-0.63,1.79-1.08
		c0.51-0.46,0.93-0.99,1.28-1.6c0.34-0.61,0.58-1.26,0.7-1.94l0.27-1.33H322.32z"/>
	<path d="M331.57,127.49c0.66,0.89,1.54,1.59,2.65,2.11c1.1,0.52,2.29,0.78,3.56,0.78c1.19,0,2.21-0.17,3.05-0.51
		s1.54-0.81,2.11-1.41c0.57-0.6,1.02-1.3,1.35-2.11c0.33-0.81,0.6-1.69,0.8-2.63l0.46-2.4h-0.08c-0.74,0.99-1.66,1.77-2.78,2.34
		c-1.12,0.57-2.36,0.86-3.73,0.86c-1.19,0-2.27-0.2-3.24-0.59c-0.96-0.39-1.79-0.93-2.47-1.62c-0.69-0.69-1.21-1.51-1.58-2.47
		c-0.37-0.96-0.55-2.02-0.55-3.16c0-1.5,0.25-2.91,0.76-4.23s1.22-2.48,2.13-3.46c0.91-0.99,1.99-1.77,3.24-2.34
		c1.24-0.57,2.61-0.86,4.11-0.86c1.47,0,2.75,0.3,3.84,0.91c1.09,0.61,1.88,1.45,2.36,2.51h0.11l0.5-2.93h3.43l-3.01,17.17
		c-0.23,1.29-0.57,2.54-1.01,3.75c-0.44,1.21-1.08,2.27-1.9,3.2c-0.83,0.93-1.88,1.67-3.16,2.23c-1.28,0.56-2.88,0.84-4.78,0.84
		c-1.62,0-3.22-0.3-4.78-0.89c-1.56-0.6-2.81-1.44-3.75-2.53L331.57,127.49z M334.7,116.41c0,0.74,0.11,1.42,0.34,2.04
		c0.23,0.62,0.56,1.17,0.99,1.66c0.43,0.48,0.96,0.86,1.6,1.12c0.63,0.27,1.36,0.4,2.17,0.4c1.02,0,1.95-0.21,2.82-0.63
		c0.86-0.42,1.61-0.98,2.25-1.67c0.63-0.7,1.13-1.52,1.49-2.46c0.36-0.94,0.53-1.93,0.53-2.97c0-1.5-0.46-2.74-1.39-3.73
		c-0.93-0.99-2.19-1.48-3.79-1.48c-1.04,0-1.99,0.2-2.86,0.59c-0.86,0.39-1.6,0.93-2.21,1.62c-0.61,0.69-1.08,1.5-1.43,2.44
		C334.87,114.26,334.7,115.29,334.7,116.41z"/>
	<path d="M367.02,124.33c0.05-0.35,0.11-0.83,0.19-1.43c0.08-0.6,0.14-1.1,0.19-1.5h-0.08c-0.66,1.04-1.5,1.87-2.53,2.49
		c-1.03,0.62-2.19,0.93-3.48,0.93c-1.98,0-3.48-0.53-4.51-1.58c-1.03-1.05-1.54-2.39-1.54-4.02c0-0.28,0.02-0.57,0.06-0.88
		c0.04-0.3,0.08-0.61,0.13-0.91l1.98-11.16h3.5l-1.75,9.94c-0.05,0.36-0.09,0.7-0.13,1.05s-0.06,0.68-0.06,1.01
		c0,1.04,0.25,1.89,0.76,2.55c0.51,0.66,1.41,0.99,2.7,0.99c1.42,0,2.66-0.54,3.71-1.62c1.05-1.08,1.73-2.52,2.04-4.32l1.71-9.59
		h3.5l-2.47,14.12c-0.1,0.48-0.21,1.1-0.32,1.87c-0.11,0.76-0.2,1.45-0.25,2.06H367.02z"/>
	<path d="M380.38,116.37c-0.03,0.13-0.04,0.23-0.04,0.32s0,0.18,0,0.29c0,0.71,0.13,1.36,0.4,1.96c0.27,0.6,0.63,1.12,1.1,1.56
		c0.47,0.44,1.03,0.79,1.68,1.03c0.65,0.24,1.34,0.36,2.07,0.36c1.29,0,2.41-0.26,3.33-0.78c0.93-0.52,1.71-1.17,2.34-1.96
		l2.09,1.98c-1.07,1.22-2.29,2.14-3.66,2.76c-1.37,0.62-2.86,0.93-4.45,0.93c-1.19,0-2.3-0.18-3.33-0.53
		c-1.03-0.35-1.92-0.88-2.67-1.56c-0.75-0.69-1.33-1.52-1.75-2.51s-0.63-2.12-0.63-3.39c0-1.5,0.27-2.92,0.8-4.26
		s1.27-2.52,2.21-3.52c0.94-1,2.06-1.8,3.35-2.38c1.29-0.58,2.69-0.88,4.19-0.88c2.31,0,4.14,0.63,5.48,1.88
		c1.34,1.26,2.02,3.01,2.02,5.27c0,0.36-0.03,0.87-0.09,1.54c-0.06,0.67-0.16,1.3-0.29,1.88H380.38z M391.54,113.78
		c0.03-0.18,0.04-0.37,0.06-0.57c0.01-0.2,0.02-0.39,0.02-0.57c0-1.17-0.38-2.14-1.14-2.91c-0.76-0.77-1.87-1.16-3.31-1.16
		c-0.86,0-1.65,0.15-2.36,0.46c-0.71,0.3-1.34,0.7-1.88,1.18c-0.55,0.48-1,1.04-1.37,1.68c-0.37,0.63-0.63,1.27-0.78,1.9H391.54z"/>
	<path d="M409.24,109.17h-4.46l-1.71,9.48c-0.08,0.43-0.11,0.81-0.11,1.14c0,0.76,0.2,1.28,0.59,1.54s0.92,0.4,1.58,0.4
		c0.36,0,0.71-0.04,1.07-0.11c0.35-0.08,0.65-0.18,0.88-0.3l-0.27,2.82c-0.36,0.15-0.79,0.27-1.31,0.36
		c-0.52,0.09-1.03,0.13-1.54,0.13c-1.4,0-2.51-0.31-3.33-0.93c-0.83-0.62-1.24-1.6-1.24-2.95c0-0.28,0.01-0.57,0.04-0.88
		s0.06-0.61,0.11-0.91l1.75-9.78h-3.43l0.53-2.89h3.39l0.88-5.18h3.5l-0.91,5.18h4.53L409.24,109.17z"/>
	<path d="M414.23,116.37c-0.03,0.13-0.04,0.23-0.04,0.32s0,0.18,0,0.29c0,0.71,0.13,1.36,0.4,1.96c0.27,0.6,0.63,1.12,1.1,1.56
		c0.47,0.44,1.03,0.79,1.68,1.03c0.65,0.24,1.34,0.36,2.07,0.36c1.29,0,2.41-0.26,3.33-0.78c0.93-0.52,1.71-1.17,2.34-1.96
		l2.09,1.98c-1.07,1.22-2.29,2.14-3.66,2.76c-1.37,0.62-2.86,0.93-4.45,0.93c-1.19,0-2.3-0.18-3.33-0.53
		c-1.03-0.35-1.92-0.88-2.67-1.56c-0.75-0.69-1.33-1.52-1.75-2.51s-0.63-2.12-0.63-3.39c0-1.5,0.27-2.92,0.8-4.26
		s1.27-2.52,2.21-3.52c0.94-1,2.06-1.8,3.35-2.38c1.29-0.58,2.69-0.88,4.19-0.88c2.31,0,4.14,0.63,5.48,1.88
		c1.34,1.26,2.02,3.01,2.02,5.27c0,0.36-0.03,0.87-0.09,1.54c-0.06,0.67-0.16,1.3-0.29,1.88H414.23z M425.38,113.78
		c0.03-0.18,0.04-0.37,0.06-0.57c0.01-0.2,0.02-0.39,0.02-0.57c0-1.17-0.38-2.14-1.14-2.91c-0.76-0.77-1.87-1.16-3.31-1.16
		c-0.86,0-1.65,0.15-2.36,0.46c-0.71,0.3-1.34,0.7-1.88,1.18c-0.55,0.48-1,1.04-1.37,1.68c-0.37,0.63-0.63,1.27-0.78,1.9H425.38z"/>
	<path d="M145.29,143.06h8.72c1.52,0,3.03,0.21,4.53,0.63c1.5,0.42,2.84,1.08,4.04,1.98c1.19,0.9,2.16,2.07,2.89,3.5
		c0.74,1.43,1.1,3.15,1.1,5.16c0,2.36-0.41,4.5-1.24,6.43c-0.83,1.93-1.97,3.58-3.45,4.95c-1.47,1.37-3.21,2.43-5.22,3.18
		c-2.01,0.75-4.19,1.12-6.55,1.12h-9.59L145.29,143.06z M144.79,166.74h5.52c2.03,0,3.81-0.34,5.35-1.01
		c1.54-0.67,2.82-1.57,3.86-2.68c1.04-1.12,1.82-2.39,2.34-3.83c0.52-1.43,0.78-2.91,0.78-4.43c0-1.17-0.19-2.27-0.57-3.29
		c-0.38-1.03-0.96-1.93-1.73-2.7c-0.77-0.77-1.76-1.39-2.97-1.85c-1.21-0.46-2.63-0.68-4.28-0.68h-4.68L144.79,166.74z"/>
	<path d="M172.74,170.01h-3.5l3.16-18.05h3.54L172.74,170.01z M177.42,145.38c0,0.63-0.21,1.18-0.64,1.64
		c-0.43,0.46-0.96,0.69-1.59,0.69c-0.6,0-1.13-0.19-1.57-0.57c-0.44-0.38-0.66-0.91-0.66-1.6s0.23-1.25,0.7-1.69
		c0.47-0.44,1-0.67,1.6-0.67c0.6,0,1.11,0.2,1.53,0.61C177.21,144.19,177.42,144.72,177.42,145.38z"/>
	<path d="M186.63,170.01h-3.77l-3.65-18.05h3.65l2.51,14.24h0.08l8.22-14.24h3.77L186.63,170.01z"/>
	<path d="M201.29,162.05c-0.03,0.13-0.04,0.24-0.04,0.32c0,0.09,0,0.18,0,0.29c0,0.71,0.13,1.36,0.4,1.96
		c0.27,0.6,0.63,1.12,1.1,1.56s1.03,0.79,1.68,1.03c0.65,0.24,1.34,0.36,2.07,0.36c1.29,0,2.41-0.26,3.33-0.78
		c0.93-0.52,1.71-1.17,2.34-1.96l2.09,1.98c-1.07,1.22-2.29,2.14-3.66,2.76c-1.37,0.62-2.86,0.93-4.45,0.93
		c-1.19,0-2.3-0.18-3.33-0.53c-1.03-0.36-1.92-0.88-2.67-1.56c-0.75-0.69-1.33-1.52-1.75-2.51c-0.42-0.99-0.63-2.12-0.63-3.39
		c0-1.5,0.27-2.92,0.8-4.26c0.53-1.34,1.27-2.52,2.21-3.52c0.94-1,2.06-1.79,3.35-2.38c1.29-0.58,2.69-0.88,4.19-0.88
		c2.31,0,4.14,0.63,5.48,1.88c1.34,1.26,2.02,3.01,2.02,5.27c0,0.36-0.03,0.87-0.09,1.54c-0.06,0.67-0.16,1.3-0.29,1.88H201.29z
		 M212.45,159.47c0.03-0.18,0.04-0.37,0.06-0.57c0.01-0.2,0.02-0.39,0.02-0.57c0-1.17-0.38-2.14-1.14-2.91
		c-0.76-0.77-1.87-1.16-3.31-1.16c-0.86,0-1.65,0.15-2.36,0.46c-0.71,0.3-1.34,0.7-1.88,1.18c-0.55,0.48-1,1.04-1.37,1.68
		s-0.63,1.27-0.78,1.9H212.45z"/>
	<path d="M252.5,165.75c-0.53,0.68-1.16,1.33-1.87,1.93c-0.71,0.6-1.51,1.13-2.4,1.58c-0.89,0.45-1.87,0.8-2.95,1.06
		c-1.08,0.26-2.25,0.38-3.52,0.38c-1.8,0-3.45-0.28-4.93-0.84c-1.48-0.56-2.75-1.34-3.81-2.36c-1.05-1.01-1.87-2.23-2.46-3.66
		c-0.58-1.42-0.88-2.99-0.88-4.72c0-2.33,0.41-4.52,1.24-6.55c0.83-2.03,1.96-3.8,3.41-5.31c1.45-1.51,3.14-2.7,5.08-3.58
		c1.94-0.88,4.03-1.31,6.26-1.31c0.99,0,1.95,0.1,2.88,0.3c0.93,0.2,1.78,0.49,2.57,0.86c0.79,0.37,1.5,0.81,2.13,1.31
		c0.63,0.51,1.14,1.08,1.52,1.71l-3.08,2.25c-0.2-0.38-0.48-0.76-0.84-1.14c-0.36-0.38-0.79-0.73-1.31-1.05
		c-0.52-0.32-1.11-0.57-1.77-0.76c-0.66-0.19-1.4-0.29-2.21-0.29c-1.75,0-3.36,0.37-4.83,1.12s-2.74,1.73-3.81,2.95
		c-1.07,1.22-1.89,2.61-2.47,4.18c-0.58,1.57-0.88,3.18-0.88,4.83c0,1.22,0.18,2.36,0.55,3.42c0.37,1.06,0.91,2,1.64,2.79
		c0.72,0.8,1.62,1.43,2.68,1.88c1.07,0.46,2.28,0.68,3.66,0.68c1.5,0,2.92-0.3,4.26-0.91s2.55-1.56,3.62-2.86L252.5,165.75z"/>
	<path d="M258.51,162.05c-0.03,0.13-0.04,0.24-0.04,0.32c0,0.09,0,0.18,0,0.29c0,0.71,0.13,1.36,0.4,1.96
		c0.27,0.6,0.63,1.12,1.1,1.56s1.03,0.79,1.68,1.03c0.65,0.24,1.34,0.36,2.07,0.36c1.29,0,2.41-0.26,3.33-0.78
		c0.93-0.52,1.71-1.17,2.34-1.96l2.09,1.98c-1.07,1.22-2.29,2.14-3.66,2.76c-1.37,0.62-2.86,0.93-4.45,0.93
		c-1.19,0-2.3-0.18-3.33-0.53c-1.03-0.36-1.92-0.88-2.67-1.56c-0.75-0.69-1.33-1.52-1.75-2.51c-0.42-0.99-0.63-2.12-0.63-3.39
		c0-1.5,0.27-2.92,0.8-4.26c0.53-1.34,1.27-2.52,2.21-3.52c0.94-1,2.06-1.79,3.35-2.38c1.29-0.58,2.69-0.88,4.19-0.88
		c2.31,0,4.14,0.63,5.48,1.88c1.34,1.26,2.02,3.01,2.02,5.27c0,0.36-0.03,0.87-0.09,1.54c-0.06,0.67-0.16,1.3-0.29,1.88H258.51z
		 M269.67,159.47c0.03-0.18,0.04-0.37,0.06-0.57c0.01-0.2,0.02-0.39,0.02-0.57c0-1.17-0.38-2.14-1.14-2.91
		c-0.76-0.77-1.87-1.16-3.31-1.16c-0.86,0-1.65,0.15-2.36,0.46c-0.71,0.3-1.34,0.7-1.88,1.18c-0.55,0.48-1,1.04-1.37,1.68
		s-0.63,1.27-0.78,1.9H269.67z"/>
	<path d="M282.84,151.97c-0.05,0.36-0.11,0.83-0.17,1.43c-0.06,0.6-0.13,1.1-0.21,1.5h0.08c0.66-1.04,1.5-1.87,2.53-2.49
		s2.19-0.93,3.48-0.93c1.98,0,3.48,0.53,4.51,1.58c1.03,1.05,1.54,2.38,1.54,3.98c0,0.63-0.05,1.24-0.15,1.83l-1.98,11.16h-3.54
		l1.75-9.97c0.15-0.69,0.23-1.36,0.23-2.02c0-1.04-0.25-1.89-0.76-2.55c-0.51-0.66-1.42-0.99-2.74-0.99c-1.42,0-2.65,0.54-3.69,1.62
		c-1.04,1.08-1.73,2.52-2.06,4.32l-1.68,9.59h-3.54l2.47-14.12c0.1-0.48,0.21-1.1,0.32-1.87s0.2-1.45,0.25-2.06H282.84z"/>
	<path d="M309.49,154.86h-4.46l-1.71,9.48c-0.08,0.43-0.11,0.81-0.11,1.14c0,0.76,0.2,1.28,0.59,1.54c0.39,0.27,0.92,0.4,1.58,0.4
		c0.36,0,0.71-0.04,1.07-0.11c0.35-0.08,0.65-0.18,0.88-0.3l-0.27,2.82c-0.36,0.15-0.79,0.27-1.31,0.36s-1.03,0.13-1.54,0.13
		c-1.4,0-2.51-0.31-3.33-0.93s-1.24-1.61-1.24-2.95c0-0.28,0.01-0.57,0.04-0.88s0.06-0.61,0.11-0.91l1.75-9.78h-3.43l0.53-2.89h3.39
		l0.88-5.18h3.5l-0.91,5.18h4.53L309.49,154.86z"/>
	<path d="M314.48,162.05c-0.03,0.13-0.04,0.24-0.04,0.32c0,0.09,0,0.18,0,0.29c0,0.71,0.13,1.36,0.4,1.96
		c0.27,0.6,0.63,1.12,1.1,1.56s1.03,0.79,1.68,1.03c0.65,0.24,1.34,0.36,2.07,0.36c1.29,0,2.41-0.26,3.33-0.78
		c0.93-0.52,1.71-1.17,2.34-1.96l2.09,1.98c-1.07,1.22-2.29,2.14-3.66,2.76c-1.37,0.62-2.86,0.93-4.45,0.93
		c-1.19,0-2.3-0.18-3.33-0.53c-1.03-0.36-1.92-0.88-2.67-1.56c-0.75-0.69-1.33-1.52-1.75-2.51c-0.42-0.99-0.63-2.12-0.63-3.39
		c0-1.5,0.27-2.92,0.8-4.26c0.53-1.34,1.27-2.52,2.21-3.52c0.94-1,2.06-1.79,3.35-2.38c1.29-0.58,2.69-0.88,4.19-0.88
		c2.31,0,4.14,0.63,5.48,1.88c1.34,1.26,2.02,3.01,2.02,5.27c0,0.36-0.03,0.87-0.09,1.54c-0.06,0.67-0.16,1.3-0.29,1.88H314.48z
		 M325.63,159.47c0.03-0.18,0.04-0.37,0.06-0.57c0.01-0.2,0.02-0.39,0.02-0.57c0-1.17-0.38-2.14-1.14-2.91
		c-0.76-0.77-1.87-1.16-3.31-1.16c-0.86,0-1.65,0.15-2.36,0.46c-0.71,0.3-1.34,0.7-1.88,1.18c-0.55,0.48-1,1.04-1.37,1.68
		s-0.63,1.27-0.78,1.9H325.63z"/>
	<path d="M335.17,154.02c0.11-0.76,0.2-1.45,0.25-2.06h3.35c-0.03,0.18-0.05,0.4-0.08,0.67s-0.06,0.55-0.09,0.84
		s-0.08,0.57-0.11,0.84s-0.07,0.5-0.1,0.7h0.08c0.63-1.07,1.43-1.92,2.38-2.57s2.04-0.97,3.25-0.97c0.56,0,1.03,0.05,1.41,0.15
		l-0.61,3.31c-0.51-0.13-1.03-0.19-1.56-0.19c-0.86,0-1.62,0.16-2.29,0.48s-1.23,0.74-1.71,1.28s-0.87,1.15-1.16,1.85
		c-0.29,0.7-0.5,1.43-0.63,2.19l-1.68,9.48h-3.5l2.47-14.12C334.95,155.41,335.06,154.78,335.17,154.02z"/>
</g>
</svg>
